<mxfile host="Electron" modified="2023-08-17T20:38:24.891Z" agent="Mozilla/5.0 (X11; Linux x86_64) AppleWebKit/537.36 (KHTML, like Gecko) draw.io/21.3.7 Chrome/112.0.5615.204 Electron/24.5.0 Safari/537.36" etag="Hvpz3KeixYCA3Ql5oh9_" version="21.3.7" type="device">
  <diagram name="Page-1" id="p402TzB3nojXT9zJLWzL">
    <mxGraphModel dx="416" dy="278" grid="1" gridSize="10" guides="1" tooltips="1" connect="1" arrows="1" fold="1" page="1" pageScale="1" pageWidth="850" pageHeight="1100" math="0" shadow="0">
      <root>
        <mxCell id="0" />
        <mxCell id="1" parent="0" />
        <mxCell id="KptEcK0yywRKa8sfL1oG-9" value="" style="rounded=1;whiteSpace=wrap;html=1;dashed=1;fillColor=none;" vertex="1" parent="1">
          <mxGeometry x="310" y="230" width="130" height="60" as="geometry" />
        </mxCell>
        <mxCell id="KptEcK0yywRKa8sfL1oG-10" style="edgeStyle=orthogonalEdgeStyle;rounded=0;orthogonalLoop=1;jettySize=auto;html=1;exitX=0.25;exitY=1;exitDx=0;exitDy=0;entryX=0.334;entryY=0;entryDx=0;entryDy=0;entryPerimeter=0;" edge="1" parent="1" source="KptEcK0yywRKa8sfL1oG-2" target="KptEcK0yywRKa8sfL1oG-7">
          <mxGeometry relative="1" as="geometry" />
        </mxCell>
        <mxCell id="KptEcK0yywRKa8sfL1oG-12" style="edgeStyle=orthogonalEdgeStyle;rounded=0;orthogonalLoop=1;jettySize=auto;html=1;exitX=0.75;exitY=1;exitDx=0;exitDy=0;entryX=0.667;entryY=0;entryDx=0;entryDy=0;entryPerimeter=0;" edge="1" parent="1" source="KptEcK0yywRKa8sfL1oG-2" target="KptEcK0yywRKa8sfL1oG-7">
          <mxGeometry relative="1" as="geometry" />
        </mxCell>
        <mxCell id="KptEcK0yywRKa8sfL1oG-2" value="+" style="rounded=1;whiteSpace=wrap;html=1;fontSize=31;labelPosition=center;verticalLabelPosition=middle;align=center;verticalAlign=middle;fontFamily=Helvetica;" vertex="1" parent="1">
          <mxGeometry x="320" y="240" width="40" height="40" as="geometry" />
        </mxCell>
        <mxCell id="KptEcK0yywRKa8sfL1oG-3" value="a" style="rounded=1;whiteSpace=wrap;html=1;fontSize=31;labelPosition=center;verticalLabelPosition=middle;align=center;verticalAlign=bottom;fontFamily=Helvetica;" vertex="1" parent="1">
          <mxGeometry x="320" y="320" width="40" height="40" as="geometry" />
        </mxCell>
        <mxCell id="KptEcK0yywRKa8sfL1oG-4" value="2" style="rounded=1;whiteSpace=wrap;html=1;fontSize=31;labelPosition=center;verticalLabelPosition=middle;align=center;verticalAlign=bottom;fontFamily=Helvetica;" vertex="1" parent="1">
          <mxGeometry x="390" y="320" width="40" height="40" as="geometry" />
        </mxCell>
        <mxCell id="KptEcK0yywRKa8sfL1oG-13" style="rounded=0;orthogonalLoop=1;jettySize=auto;html=1;exitX=0.25;exitY=1;exitDx=0;exitDy=0;entryX=0.906;entryY=-0.02;entryDx=0;entryDy=0;entryPerimeter=0;" edge="1" parent="1" source="KptEcK0yywRKa8sfL1oG-5" target="KptEcK0yywRKa8sfL1oG-7">
          <mxGeometry relative="1" as="geometry" />
        </mxCell>
        <mxCell id="KptEcK0yywRKa8sfL1oG-14" style="edgeStyle=orthogonalEdgeStyle;rounded=0;orthogonalLoop=1;jettySize=auto;html=1;exitX=0.75;exitY=1;exitDx=0;exitDy=0;entryX=0.666;entryY=0;entryDx=0;entryDy=0;entryPerimeter=0;" edge="1" parent="1" source="KptEcK0yywRKa8sfL1oG-5" target="KptEcK0yywRKa8sfL1oG-8">
          <mxGeometry relative="1" as="geometry" />
        </mxCell>
        <mxCell id="KptEcK0yywRKa8sfL1oG-5" value="*" style="rounded=1;whiteSpace=wrap;html=1;fontSize=31;labelPosition=center;verticalLabelPosition=middle;align=center;verticalAlign=top;fontFamily=Helvetica;" vertex="1" parent="1">
          <mxGeometry x="390" y="240" width="40" height="40" as="geometry" />
        </mxCell>
        <mxCell id="KptEcK0yywRKa8sfL1oG-7" value="" style="rounded=1;whiteSpace=wrap;html=1;dashed=1;fillColor=none;" vertex="1" parent="1">
          <mxGeometry x="310" y="310" width="60" height="60" as="geometry" />
        </mxCell>
        <mxCell id="KptEcK0yywRKa8sfL1oG-8" value="" style="rounded=1;whiteSpace=wrap;html=1;dashed=1;fillColor=none;" vertex="1" parent="1">
          <mxGeometry x="380" y="310" width="60" height="60" as="geometry" />
        </mxCell>
      </root>
    </mxGraphModel>
  </diagram>
</mxfile>
